%TF.GenerationSoftware,KiCad,Pcbnew,7.0.9-7.0.9~ubuntu22.04.1*%
%TF.CreationDate,2023-11-27T09:49:11+01:00*%
%TF.ProjectId,pcb,7063622e-6b69-4636-9164-5f7063625858,rev?*%
%TF.SameCoordinates,Original*%
%TF.FileFunction,Legend,Bot*%
%TF.FilePolarity,Positive*%
%FSLAX46Y46*%
G04 Gerber Fmt 4.6, Leading zero omitted, Abs format (unit mm)*
G04 Created by KiCad (PCBNEW 7.0.9-7.0.9~ubuntu22.04.1) date 2023-11-27 09:49:11*
%MOMM*%
%LPD*%
G01*
G04 APERTURE LIST*
%ADD10C,0.200000*%
%ADD11C,0.120000*%
G04 APERTURE END LIST*
D10*
G36*
X132970795Y-93698318D02*
G01*
X132706280Y-93698318D01*
X132706280Y-94089106D01*
X132316224Y-94089106D01*
X132316224Y-93698318D01*
X132051709Y-93698318D01*
X132051709Y-94730000D01*
X132316224Y-94730000D01*
X132316224Y-94292316D01*
X132706280Y-94292316D01*
X132706280Y-94730000D01*
X132970795Y-94730000D01*
X132970795Y-93698318D01*
G37*
G36*
X131921772Y-93698318D02*
G01*
X130976552Y-93698318D01*
X130976552Y-93901528D01*
X131316538Y-93901528D01*
X131316538Y-94730000D01*
X131581053Y-94730000D01*
X131581053Y-93901528D01*
X131921772Y-93901528D01*
X131921772Y-93698318D01*
G37*
G36*
X130880076Y-93698318D02*
G01*
X130107292Y-93698318D01*
X130107292Y-93848283D01*
X130506873Y-94730000D01*
X130764549Y-94730000D01*
X130385973Y-93901528D01*
X130880076Y-93901528D01*
X130880076Y-93698318D01*
G37*
G36*
X129344766Y-94165799D02*
G01*
X129331986Y-94169344D01*
X129319597Y-94173202D01*
X129307600Y-94177373D01*
X129295993Y-94181857D01*
X129284778Y-94186655D01*
X129273954Y-94191765D01*
X129263522Y-94197188D01*
X129253480Y-94202923D01*
X129243830Y-94208972D01*
X129234570Y-94215334D01*
X129225702Y-94222009D01*
X129217225Y-94228996D01*
X129209139Y-94236297D01*
X129201445Y-94243910D01*
X129194141Y-94251837D01*
X129187229Y-94260076D01*
X129180693Y-94268586D01*
X129174578Y-94277383D01*
X129168885Y-94286469D01*
X129163614Y-94295843D01*
X129158764Y-94305504D01*
X129154336Y-94315455D01*
X129150330Y-94325693D01*
X129146746Y-94336219D01*
X129143583Y-94347033D01*
X129140842Y-94358136D01*
X129138523Y-94369527D01*
X129136625Y-94381205D01*
X129135149Y-94393172D01*
X129134095Y-94405427D01*
X129133462Y-94417971D01*
X129133251Y-94430802D01*
X129133707Y-94449779D01*
X129135076Y-94468179D01*
X129137356Y-94486003D01*
X129140548Y-94503251D01*
X129144653Y-94519922D01*
X129149669Y-94536017D01*
X129155598Y-94551536D01*
X129162438Y-94566479D01*
X129170191Y-94580845D01*
X129178856Y-94594636D01*
X129188433Y-94607849D01*
X129198922Y-94620487D01*
X129210323Y-94632549D01*
X129222637Y-94644034D01*
X129235862Y-94654943D01*
X129250000Y-94665275D01*
X129265012Y-94675006D01*
X129280862Y-94684109D01*
X129297550Y-94692584D01*
X129315075Y-94700431D01*
X129324152Y-94704119D01*
X129333438Y-94707650D01*
X129342934Y-94711025D01*
X129352639Y-94714242D01*
X129362553Y-94717302D01*
X129372677Y-94720206D01*
X129383010Y-94722952D01*
X129393553Y-94725542D01*
X129404305Y-94727975D01*
X129415267Y-94730250D01*
X129426438Y-94732369D01*
X129437818Y-94734331D01*
X129449408Y-94736136D01*
X129461208Y-94737784D01*
X129473216Y-94739275D01*
X129485434Y-94740609D01*
X129497862Y-94741786D01*
X129510499Y-94742806D01*
X129523345Y-94743669D01*
X129536401Y-94744375D01*
X129549666Y-94744925D01*
X129563141Y-94745317D01*
X129576825Y-94745553D01*
X129590718Y-94745631D01*
X129600611Y-94745585D01*
X129610506Y-94745448D01*
X129620402Y-94745219D01*
X129630301Y-94744898D01*
X129640201Y-94744486D01*
X129650104Y-94743982D01*
X129660008Y-94743387D01*
X129669914Y-94742700D01*
X129679822Y-94741922D01*
X129689732Y-94741051D01*
X129699644Y-94740090D01*
X129709558Y-94739036D01*
X129719473Y-94737892D01*
X129729391Y-94736655D01*
X129739310Y-94735327D01*
X129749232Y-94733907D01*
X129759118Y-94732396D01*
X129768993Y-94730793D01*
X129778856Y-94729099D01*
X129788708Y-94727313D01*
X129798548Y-94725435D01*
X129808377Y-94723466D01*
X129818194Y-94721405D01*
X129828000Y-94719253D01*
X129837795Y-94717009D01*
X129847578Y-94714673D01*
X129857349Y-94712246D01*
X129867110Y-94709727D01*
X129876858Y-94707117D01*
X129886596Y-94704415D01*
X129896321Y-94701622D01*
X129906036Y-94698736D01*
X129906036Y-94495526D01*
X129896759Y-94500306D01*
X129887492Y-94504937D01*
X129878235Y-94509420D01*
X129868987Y-94513753D01*
X129859749Y-94517938D01*
X129850520Y-94521973D01*
X129841301Y-94525860D01*
X129832091Y-94529598D01*
X129822891Y-94533187D01*
X129813701Y-94536628D01*
X129799933Y-94541509D01*
X129786186Y-94546056D01*
X129772461Y-94550268D01*
X129758757Y-94554145D01*
X129745040Y-94557637D01*
X129731366Y-94560785D01*
X129717735Y-94563590D01*
X129704146Y-94566051D01*
X129690601Y-94568170D01*
X129677098Y-94569944D01*
X129663639Y-94571375D01*
X129650222Y-94572463D01*
X129636848Y-94573207D01*
X129623517Y-94573608D01*
X129614654Y-94573684D01*
X129601718Y-94573535D01*
X129589165Y-94573089D01*
X129576996Y-94572345D01*
X129565210Y-94571303D01*
X129553808Y-94569963D01*
X129542789Y-94568326D01*
X129532154Y-94566391D01*
X129521903Y-94564159D01*
X129512035Y-94561628D01*
X129502550Y-94558801D01*
X129489043Y-94554001D01*
X129476398Y-94548531D01*
X129464617Y-94542391D01*
X129453698Y-94535582D01*
X129443659Y-94528102D01*
X129434607Y-94520043D01*
X129426543Y-94511404D01*
X129419466Y-94502186D01*
X129413376Y-94492388D01*
X129408275Y-94482010D01*
X129404160Y-94471053D01*
X129401033Y-94459516D01*
X129398894Y-94447399D01*
X129397742Y-94434703D01*
X129397522Y-94425917D01*
X129398027Y-94412446D01*
X129399540Y-94399602D01*
X129402062Y-94387385D01*
X129405594Y-94375794D01*
X129410134Y-94364830D01*
X129415683Y-94354493D01*
X129422241Y-94344783D01*
X129429808Y-94335700D01*
X129438384Y-94327244D01*
X129447969Y-94319414D01*
X129454919Y-94314542D01*
X129466162Y-94307777D01*
X129478367Y-94301677D01*
X129491533Y-94296242D01*
X129500845Y-94292989D01*
X129510584Y-94290031D01*
X129520750Y-94287369D01*
X129531344Y-94285003D01*
X129542366Y-94282933D01*
X129553815Y-94281158D01*
X129565691Y-94279679D01*
X129577995Y-94278496D01*
X129590726Y-94277609D01*
X129603884Y-94277018D01*
X129617470Y-94276722D01*
X129624424Y-94276685D01*
X129730181Y-94276685D01*
X129730181Y-94104738D01*
X129618806Y-94104738D01*
X129606549Y-94104616D01*
X129594691Y-94104249D01*
X129583232Y-94103639D01*
X129572171Y-94102784D01*
X129561509Y-94101685D01*
X129551246Y-94100341D01*
X129541382Y-94098754D01*
X129527334Y-94095915D01*
X129514182Y-94092526D01*
X129501929Y-94088587D01*
X129490572Y-94084099D01*
X129480113Y-94079062D01*
X129470551Y-94073475D01*
X129461821Y-94067325D01*
X129453950Y-94060600D01*
X129446937Y-94053300D01*
X129440784Y-94045425D01*
X129435489Y-94036974D01*
X129431052Y-94027948D01*
X129427474Y-94018347D01*
X129424755Y-94008170D01*
X129422895Y-93997418D01*
X129421893Y-93986091D01*
X129421702Y-93978220D01*
X129422119Y-93967374D01*
X129423368Y-93957000D01*
X129425450Y-93947098D01*
X129428365Y-93937668D01*
X129433548Y-93925830D01*
X129440211Y-93914831D01*
X129448355Y-93904672D01*
X129455435Y-93897604D01*
X129463348Y-93891008D01*
X129469085Y-93886873D01*
X129478315Y-93881112D01*
X129488236Y-93875917D01*
X129498849Y-93871288D01*
X129510152Y-93867227D01*
X129522147Y-93863732D01*
X129534833Y-93860804D01*
X129548211Y-93858443D01*
X129562279Y-93856648D01*
X129572042Y-93855767D01*
X129582113Y-93855137D01*
X129592490Y-93854759D01*
X129603175Y-93854633D01*
X129615142Y-93854773D01*
X129627140Y-93855191D01*
X129639168Y-93855889D01*
X129651226Y-93856866D01*
X129663313Y-93858121D01*
X129675431Y-93859656D01*
X129687579Y-93861470D01*
X129699757Y-93863563D01*
X129711966Y-93865935D01*
X129724204Y-93868586D01*
X129732379Y-93870509D01*
X129744600Y-93873617D01*
X129756808Y-93876986D01*
X129769003Y-93880618D01*
X129781186Y-93884511D01*
X129793355Y-93888666D01*
X129805512Y-93893083D01*
X129817655Y-93897762D01*
X129829786Y-93902703D01*
X129841904Y-93907906D01*
X129854009Y-93913371D01*
X129862072Y-93917159D01*
X129862072Y-93729581D01*
X129852278Y-93726696D01*
X129842494Y-93723902D01*
X129832723Y-93721200D01*
X129822963Y-93718590D01*
X129813214Y-93716071D01*
X129803477Y-93713644D01*
X129793751Y-93711308D01*
X129784036Y-93709064D01*
X129774334Y-93706912D01*
X129764642Y-93704851D01*
X129754962Y-93702882D01*
X129745293Y-93701004D01*
X129735636Y-93699218D01*
X129725991Y-93697524D01*
X129711544Y-93695154D01*
X129706734Y-93694410D01*
X129692332Y-93692315D01*
X129677977Y-93690426D01*
X129663669Y-93688743D01*
X129649409Y-93687266D01*
X129635196Y-93685995D01*
X129621030Y-93684930D01*
X129606912Y-93684071D01*
X129592840Y-93683419D01*
X129578816Y-93682972D01*
X129564839Y-93682732D01*
X129555547Y-93682686D01*
X129543159Y-93682749D01*
X129530967Y-93682938D01*
X129518971Y-93683253D01*
X129507172Y-93683694D01*
X129495569Y-93684260D01*
X129484164Y-93684953D01*
X129472954Y-93685772D01*
X129461941Y-93686716D01*
X129451125Y-93687787D01*
X129440505Y-93688983D01*
X129430082Y-93690305D01*
X129419855Y-93691754D01*
X129409825Y-93693328D01*
X129399991Y-93695028D01*
X129390354Y-93696854D01*
X129371670Y-93700884D01*
X129353771Y-93705418D01*
X129336659Y-93710455D01*
X129320333Y-93715997D01*
X129304793Y-93722042D01*
X129290039Y-93728590D01*
X129276071Y-93735643D01*
X129262890Y-93743199D01*
X129256594Y-93747166D01*
X129244557Y-93755482D01*
X129233296Y-93764309D01*
X129222811Y-93773648D01*
X129213104Y-93783497D01*
X129204172Y-93793859D01*
X129196018Y-93804731D01*
X129188640Y-93816115D01*
X129182039Y-93828011D01*
X129176214Y-93840417D01*
X129171166Y-93853336D01*
X129166895Y-93866765D01*
X129163400Y-93880706D01*
X129160682Y-93895158D01*
X129158740Y-93910122D01*
X129157576Y-93925597D01*
X129157187Y-93941584D01*
X129157372Y-93952511D01*
X129157928Y-93963188D01*
X129158853Y-93973615D01*
X129160149Y-93983792D01*
X129161814Y-93993719D01*
X129163850Y-94003396D01*
X129167599Y-94017443D01*
X129172180Y-94030928D01*
X129177593Y-94043850D01*
X129183840Y-94056210D01*
X129190920Y-94068007D01*
X129198833Y-94079242D01*
X129204570Y-94086420D01*
X129213854Y-94096704D01*
X129223936Y-94106401D01*
X129234817Y-94115509D01*
X129246496Y-94124029D01*
X129254726Y-94129382D01*
X129263311Y-94134474D01*
X129272250Y-94139305D01*
X129281545Y-94143874D01*
X129291194Y-94148182D01*
X129301199Y-94152228D01*
X129311558Y-94156013D01*
X129322272Y-94159536D01*
X129333342Y-94162798D01*
X129344766Y-94165799D01*
G37*
G36*
X128370725Y-94165799D02*
G01*
X128357945Y-94169344D01*
X128345557Y-94173202D01*
X128333559Y-94177373D01*
X128321953Y-94181857D01*
X128310738Y-94186655D01*
X128299914Y-94191765D01*
X128289481Y-94197188D01*
X128279439Y-94202923D01*
X128269789Y-94208972D01*
X128260530Y-94215334D01*
X128251662Y-94222009D01*
X128243185Y-94228996D01*
X128235099Y-94236297D01*
X128227404Y-94243910D01*
X128220101Y-94251837D01*
X128213189Y-94260076D01*
X128206652Y-94268586D01*
X128200538Y-94277383D01*
X128194845Y-94286469D01*
X128189573Y-94295843D01*
X128184724Y-94305504D01*
X128180296Y-94315455D01*
X128176290Y-94325693D01*
X128172705Y-94336219D01*
X128169543Y-94347033D01*
X128166802Y-94358136D01*
X128164482Y-94369527D01*
X128162585Y-94381205D01*
X128161109Y-94393172D01*
X128160054Y-94405427D01*
X128159422Y-94417971D01*
X128159211Y-94430802D01*
X128159667Y-94449779D01*
X128161035Y-94468179D01*
X128163315Y-94486003D01*
X128166508Y-94503251D01*
X128170612Y-94519922D01*
X128175629Y-94536017D01*
X128181557Y-94551536D01*
X128188398Y-94566479D01*
X128196151Y-94580845D01*
X128204816Y-94594636D01*
X128214393Y-94607849D01*
X128224882Y-94620487D01*
X128236283Y-94632549D01*
X128248596Y-94644034D01*
X128261822Y-94654943D01*
X128275959Y-94665275D01*
X128290971Y-94675006D01*
X128306821Y-94684109D01*
X128323509Y-94692584D01*
X128341034Y-94700431D01*
X128350111Y-94704119D01*
X128359398Y-94707650D01*
X128368893Y-94711025D01*
X128378598Y-94714242D01*
X128388513Y-94717302D01*
X128398637Y-94720206D01*
X128408970Y-94722952D01*
X128419513Y-94725542D01*
X128430265Y-94727975D01*
X128441227Y-94730250D01*
X128452398Y-94732369D01*
X128463778Y-94734331D01*
X128475368Y-94736136D01*
X128487167Y-94737784D01*
X128499176Y-94739275D01*
X128511394Y-94740609D01*
X128523821Y-94741786D01*
X128536458Y-94742806D01*
X128549305Y-94743669D01*
X128562360Y-94744375D01*
X128575626Y-94744925D01*
X128589100Y-94745317D01*
X128602784Y-94745553D01*
X128616678Y-94745631D01*
X128626571Y-94745585D01*
X128636465Y-94745448D01*
X128646362Y-94745219D01*
X128656260Y-94744898D01*
X128666161Y-94744486D01*
X128676063Y-94743982D01*
X128685967Y-94743387D01*
X128695874Y-94742700D01*
X128705782Y-94741922D01*
X128715692Y-94741051D01*
X128725603Y-94740090D01*
X128735517Y-94739036D01*
X128745433Y-94737892D01*
X128755350Y-94736655D01*
X128765270Y-94735327D01*
X128775191Y-94733907D01*
X128785078Y-94732396D01*
X128794952Y-94730793D01*
X128804815Y-94729099D01*
X128814667Y-94727313D01*
X128824507Y-94725435D01*
X128834336Y-94723466D01*
X128844154Y-94721405D01*
X128853960Y-94719253D01*
X128863754Y-94717009D01*
X128873537Y-94714673D01*
X128883309Y-94712246D01*
X128893069Y-94709727D01*
X128902818Y-94707117D01*
X128912555Y-94704415D01*
X128922281Y-94701622D01*
X128931995Y-94698736D01*
X128931995Y-94495526D01*
X128922719Y-94500306D01*
X128913452Y-94504937D01*
X128904195Y-94509420D01*
X128894947Y-94513753D01*
X128885708Y-94517938D01*
X128876480Y-94521973D01*
X128867260Y-94525860D01*
X128858051Y-94529598D01*
X128848851Y-94533187D01*
X128839660Y-94536628D01*
X128825892Y-94541509D01*
X128812146Y-94546056D01*
X128798420Y-94550268D01*
X128784717Y-94554145D01*
X128771000Y-94557637D01*
X128757325Y-94560785D01*
X128743694Y-94563590D01*
X128730106Y-94566051D01*
X128716560Y-94568170D01*
X128703058Y-94569944D01*
X128689598Y-94571375D01*
X128676181Y-94572463D01*
X128662808Y-94573207D01*
X128649477Y-94573608D01*
X128640614Y-94573684D01*
X128627677Y-94573535D01*
X128615125Y-94573089D01*
X128602955Y-94572345D01*
X128591170Y-94571303D01*
X128579768Y-94569963D01*
X128568749Y-94568326D01*
X128558114Y-94566391D01*
X128547862Y-94564159D01*
X128537994Y-94561628D01*
X128528510Y-94558801D01*
X128515002Y-94554001D01*
X128502358Y-94548531D01*
X128490576Y-94542391D01*
X128479658Y-94535582D01*
X128469618Y-94528102D01*
X128460567Y-94520043D01*
X128452502Y-94511404D01*
X128445425Y-94502186D01*
X128439336Y-94492388D01*
X128434234Y-94482010D01*
X128430120Y-94471053D01*
X128426993Y-94459516D01*
X128424853Y-94447399D01*
X128423701Y-94434703D01*
X128423482Y-94425917D01*
X128423986Y-94412446D01*
X128425500Y-94399602D01*
X128428022Y-94387385D01*
X128431553Y-94375794D01*
X128436093Y-94364830D01*
X128441642Y-94354493D01*
X128448201Y-94344783D01*
X128455768Y-94335700D01*
X128464343Y-94327244D01*
X128473928Y-94319414D01*
X128480879Y-94314542D01*
X128492122Y-94307777D01*
X128504326Y-94301677D01*
X128517492Y-94296242D01*
X128526804Y-94292989D01*
X128536543Y-94290031D01*
X128546710Y-94287369D01*
X128557304Y-94285003D01*
X128568325Y-94282933D01*
X128579774Y-94281158D01*
X128591651Y-94279679D01*
X128603954Y-94278496D01*
X128616685Y-94277609D01*
X128629844Y-94277018D01*
X128643430Y-94276722D01*
X128650383Y-94276685D01*
X128756140Y-94276685D01*
X128756140Y-94104738D01*
X128644766Y-94104738D01*
X128632509Y-94104616D01*
X128620651Y-94104249D01*
X128609191Y-94103639D01*
X128598131Y-94102784D01*
X128587469Y-94101685D01*
X128577206Y-94100341D01*
X128567342Y-94098754D01*
X128553293Y-94095915D01*
X128540142Y-94092526D01*
X128527888Y-94088587D01*
X128516532Y-94084099D01*
X128506072Y-94079062D01*
X128496510Y-94073475D01*
X128487781Y-94067325D01*
X128479909Y-94060600D01*
X128472897Y-94053300D01*
X128466743Y-94045425D01*
X128461448Y-94036974D01*
X128457012Y-94027948D01*
X128453434Y-94018347D01*
X128450715Y-94008170D01*
X128448854Y-93997418D01*
X128447853Y-93986091D01*
X128447662Y-93978220D01*
X128448078Y-93967374D01*
X128449328Y-93957000D01*
X128451410Y-93947098D01*
X128454325Y-93937668D01*
X128459508Y-93925830D01*
X128466171Y-93914831D01*
X128474315Y-93904672D01*
X128481394Y-93897604D01*
X128489307Y-93891008D01*
X128495045Y-93886873D01*
X128504275Y-93881112D01*
X128514196Y-93875917D01*
X128524808Y-93871288D01*
X128536112Y-93867227D01*
X128548107Y-93863732D01*
X128560793Y-93860804D01*
X128574170Y-93858443D01*
X128588239Y-93856648D01*
X128598002Y-93855767D01*
X128608072Y-93855137D01*
X128618450Y-93854759D01*
X128629134Y-93854633D01*
X128641102Y-93854773D01*
X128653100Y-93855191D01*
X128665127Y-93855889D01*
X128677185Y-93856866D01*
X128689273Y-93858121D01*
X128701391Y-93859656D01*
X128713539Y-93861470D01*
X128725717Y-93863563D01*
X128737925Y-93865935D01*
X128750163Y-93868586D01*
X128758339Y-93870509D01*
X128770560Y-93873617D01*
X128782768Y-93876986D01*
X128794963Y-93880618D01*
X128807145Y-93884511D01*
X128819315Y-93888666D01*
X128831471Y-93893083D01*
X128843615Y-93897762D01*
X128855746Y-93902703D01*
X128867864Y-93907906D01*
X128879969Y-93913371D01*
X128888032Y-93917159D01*
X128888032Y-93729581D01*
X128878237Y-93726696D01*
X128868454Y-93723902D01*
X128858682Y-93721200D01*
X128848922Y-93718590D01*
X128839173Y-93716071D01*
X128829436Y-93713644D01*
X128819710Y-93711308D01*
X128809996Y-93709064D01*
X128800293Y-93706912D01*
X128790602Y-93704851D01*
X128780922Y-93702882D01*
X128771253Y-93701004D01*
X128761596Y-93699218D01*
X128751950Y-93697524D01*
X128737503Y-93695154D01*
X128732693Y-93694410D01*
X128718291Y-93692315D01*
X128703936Y-93690426D01*
X128689629Y-93688743D01*
X128675369Y-93687266D01*
X128661156Y-93685995D01*
X128646990Y-93684930D01*
X128632871Y-93684071D01*
X128618800Y-93683419D01*
X128604775Y-93682972D01*
X128590799Y-93682732D01*
X128581507Y-93682686D01*
X128569118Y-93682749D01*
X128556926Y-93682938D01*
X128544931Y-93683253D01*
X128533131Y-93683694D01*
X128521529Y-93684260D01*
X128510123Y-93684953D01*
X128498914Y-93685772D01*
X128487901Y-93686716D01*
X128477084Y-93687787D01*
X128466465Y-93688983D01*
X128456041Y-93690305D01*
X128445815Y-93691754D01*
X128435784Y-93693328D01*
X128425951Y-93695028D01*
X128416314Y-93696854D01*
X128397629Y-93700884D01*
X128379731Y-93705418D01*
X128362618Y-93710455D01*
X128346292Y-93715997D01*
X128330752Y-93722042D01*
X128315999Y-93728590D01*
X128302031Y-93735643D01*
X128288850Y-93743199D01*
X128282554Y-93747166D01*
X128270516Y-93755482D01*
X128259255Y-93764309D01*
X128248771Y-93773648D01*
X128239063Y-93783497D01*
X128230132Y-93793859D01*
X128221978Y-93804731D01*
X128214600Y-93816115D01*
X128207998Y-93828011D01*
X128202174Y-93840417D01*
X128197126Y-93853336D01*
X128192854Y-93866765D01*
X128189360Y-93880706D01*
X128186642Y-93895158D01*
X128184700Y-93910122D01*
X128183535Y-93925597D01*
X128183147Y-93941584D01*
X128183332Y-93952511D01*
X128183887Y-93963188D01*
X128184813Y-93973615D01*
X128186108Y-93983792D01*
X128187774Y-93993719D01*
X128189810Y-94003396D01*
X128193558Y-94017443D01*
X128198139Y-94030928D01*
X128203553Y-94043850D01*
X128209800Y-94056210D01*
X128216879Y-94068007D01*
X128224792Y-94079242D01*
X128230530Y-94086420D01*
X128239813Y-94096704D01*
X128249896Y-94106401D01*
X128260776Y-94115509D01*
X128272456Y-94124029D01*
X128280686Y-94129382D01*
X128289270Y-94134474D01*
X128298210Y-94139305D01*
X128307505Y-94143874D01*
X128317154Y-94148182D01*
X128327158Y-94152228D01*
X128337518Y-94156013D01*
X128348232Y-94159536D01*
X128359301Y-94162798D01*
X128370725Y-94165799D01*
G37*
G36*
X127396685Y-94165799D02*
G01*
X127383905Y-94169344D01*
X127371516Y-94173202D01*
X127359519Y-94177373D01*
X127347913Y-94181857D01*
X127336697Y-94186655D01*
X127325873Y-94191765D01*
X127315441Y-94197188D01*
X127305399Y-94202923D01*
X127295749Y-94208972D01*
X127286489Y-94215334D01*
X127277621Y-94222009D01*
X127269144Y-94228996D01*
X127261058Y-94236297D01*
X127253364Y-94243910D01*
X127246060Y-94251837D01*
X127239148Y-94260076D01*
X127232612Y-94268586D01*
X127226497Y-94277383D01*
X127220804Y-94286469D01*
X127215533Y-94295843D01*
X127210683Y-94305504D01*
X127206255Y-94315455D01*
X127202249Y-94325693D01*
X127198665Y-94336219D01*
X127195502Y-94347033D01*
X127192761Y-94358136D01*
X127190442Y-94369527D01*
X127188544Y-94381205D01*
X127187068Y-94393172D01*
X127186014Y-94405427D01*
X127185381Y-94417971D01*
X127185170Y-94430802D01*
X127185627Y-94449779D01*
X127186995Y-94468179D01*
X127189275Y-94486003D01*
X127192467Y-94503251D01*
X127196572Y-94519922D01*
X127201588Y-94536017D01*
X127207517Y-94551536D01*
X127214357Y-94566479D01*
X127222110Y-94580845D01*
X127230775Y-94594636D01*
X127240352Y-94607849D01*
X127250841Y-94620487D01*
X127262242Y-94632549D01*
X127274556Y-94644034D01*
X127287781Y-94654943D01*
X127301919Y-94665275D01*
X127316931Y-94675006D01*
X127332781Y-94684109D01*
X127349469Y-94692584D01*
X127366994Y-94700431D01*
X127376071Y-94704119D01*
X127385357Y-94707650D01*
X127394853Y-94711025D01*
X127404558Y-94714242D01*
X127414472Y-94717302D01*
X127424596Y-94720206D01*
X127434930Y-94722952D01*
X127445472Y-94725542D01*
X127456224Y-94727975D01*
X127467186Y-94730250D01*
X127478357Y-94732369D01*
X127489737Y-94734331D01*
X127501327Y-94736136D01*
X127513127Y-94737784D01*
X127525135Y-94739275D01*
X127537353Y-94740609D01*
X127549781Y-94741786D01*
X127562418Y-94742806D01*
X127575264Y-94743669D01*
X127588320Y-94744375D01*
X127601585Y-94744925D01*
X127615060Y-94745317D01*
X127628744Y-94745553D01*
X127642637Y-94745631D01*
X127652530Y-94745585D01*
X127662425Y-94745448D01*
X127672321Y-94745219D01*
X127682220Y-94744898D01*
X127692120Y-94744486D01*
X127702023Y-94743982D01*
X127711927Y-94743387D01*
X127721833Y-94742700D01*
X127731741Y-94741922D01*
X127741651Y-94741051D01*
X127751563Y-94740090D01*
X127761477Y-94739036D01*
X127771392Y-94737892D01*
X127781310Y-94736655D01*
X127791230Y-94735327D01*
X127801151Y-94733907D01*
X127811037Y-94732396D01*
X127820912Y-94730793D01*
X127830775Y-94729099D01*
X127840627Y-94727313D01*
X127850467Y-94725435D01*
X127860296Y-94723466D01*
X127870113Y-94721405D01*
X127879919Y-94719253D01*
X127889714Y-94717009D01*
X127899497Y-94714673D01*
X127909268Y-94712246D01*
X127919029Y-94709727D01*
X127928777Y-94707117D01*
X127938515Y-94704415D01*
X127948240Y-94701622D01*
X127957955Y-94698736D01*
X127957955Y-94495526D01*
X127948678Y-94500306D01*
X127939411Y-94504937D01*
X127930154Y-94509420D01*
X127920906Y-94513753D01*
X127911668Y-94517938D01*
X127902439Y-94521973D01*
X127893220Y-94525860D01*
X127884010Y-94529598D01*
X127874810Y-94533187D01*
X127865620Y-94536628D01*
X127851852Y-94541509D01*
X127838105Y-94546056D01*
X127824380Y-94550268D01*
X127810676Y-94554145D01*
X127796959Y-94557637D01*
X127783285Y-94560785D01*
X127769654Y-94563590D01*
X127756065Y-94566051D01*
X127742520Y-94568170D01*
X127729017Y-94569944D01*
X127715558Y-94571375D01*
X127702141Y-94572463D01*
X127688767Y-94573207D01*
X127675436Y-94573608D01*
X127666573Y-94573684D01*
X127653637Y-94573535D01*
X127641084Y-94573089D01*
X127628915Y-94572345D01*
X127617129Y-94571303D01*
X127605727Y-94569963D01*
X127594708Y-94568326D01*
X127584073Y-94566391D01*
X127573822Y-94564159D01*
X127563954Y-94561628D01*
X127554469Y-94558801D01*
X127540962Y-94554001D01*
X127528317Y-94548531D01*
X127516536Y-94542391D01*
X127505617Y-94535582D01*
X127495578Y-94528102D01*
X127486526Y-94520043D01*
X127478462Y-94511404D01*
X127471385Y-94502186D01*
X127465296Y-94492388D01*
X127460194Y-94482010D01*
X127456079Y-94471053D01*
X127452952Y-94459516D01*
X127450813Y-94447399D01*
X127449661Y-94434703D01*
X127449441Y-94425917D01*
X127449946Y-94412446D01*
X127451459Y-94399602D01*
X127453981Y-94387385D01*
X127457513Y-94375794D01*
X127462053Y-94364830D01*
X127467602Y-94354493D01*
X127474160Y-94344783D01*
X127481727Y-94335700D01*
X127490303Y-94327244D01*
X127499888Y-94319414D01*
X127506838Y-94314542D01*
X127518081Y-94307777D01*
X127530286Y-94301677D01*
X127543452Y-94296242D01*
X127552764Y-94292989D01*
X127562503Y-94290031D01*
X127572669Y-94287369D01*
X127583263Y-94285003D01*
X127594285Y-94282933D01*
X127605734Y-94281158D01*
X127617610Y-94279679D01*
X127629914Y-94278496D01*
X127642645Y-94277609D01*
X127655804Y-94277018D01*
X127669390Y-94276722D01*
X127676343Y-94276685D01*
X127782100Y-94276685D01*
X127782100Y-94104738D01*
X127670725Y-94104738D01*
X127658468Y-94104616D01*
X127646610Y-94104249D01*
X127635151Y-94103639D01*
X127624090Y-94102784D01*
X127613428Y-94101685D01*
X127603165Y-94100341D01*
X127593301Y-94098754D01*
X127579253Y-94095915D01*
X127566102Y-94092526D01*
X127553848Y-94088587D01*
X127542491Y-94084099D01*
X127532032Y-94079062D01*
X127522470Y-94073475D01*
X127513740Y-94067325D01*
X127505869Y-94060600D01*
X127498857Y-94053300D01*
X127492703Y-94045425D01*
X127487408Y-94036974D01*
X127482971Y-94027948D01*
X127479393Y-94018347D01*
X127476674Y-94008170D01*
X127474814Y-93997418D01*
X127473812Y-93986091D01*
X127473621Y-93978220D01*
X127474038Y-93967374D01*
X127475287Y-93957000D01*
X127477369Y-93947098D01*
X127480285Y-93937668D01*
X127485467Y-93925830D01*
X127492130Y-93914831D01*
X127500274Y-93904672D01*
X127507354Y-93897604D01*
X127515267Y-93891008D01*
X127521004Y-93886873D01*
X127530234Y-93881112D01*
X127540156Y-93875917D01*
X127550768Y-93871288D01*
X127562072Y-93867227D01*
X127574066Y-93863732D01*
X127586752Y-93860804D01*
X127600130Y-93858443D01*
X127614198Y-93856648D01*
X127623961Y-93855767D01*
X127634032Y-93855137D01*
X127644409Y-93854759D01*
X127655094Y-93854633D01*
X127667061Y-93854773D01*
X127679059Y-93855191D01*
X127691087Y-93855889D01*
X127703145Y-93856866D01*
X127715233Y-93858121D01*
X127727350Y-93859656D01*
X127739498Y-93861470D01*
X127751676Y-93863563D01*
X127763885Y-93865935D01*
X127776123Y-93868586D01*
X127784298Y-93870509D01*
X127796519Y-93873617D01*
X127808727Y-93876986D01*
X127820922Y-93880618D01*
X127833105Y-93884511D01*
X127845274Y-93888666D01*
X127857431Y-93893083D01*
X127869574Y-93897762D01*
X127881705Y-93902703D01*
X127893823Y-93907906D01*
X127905928Y-93913371D01*
X127913991Y-93917159D01*
X127913991Y-93729581D01*
X127904197Y-93726696D01*
X127894414Y-93723902D01*
X127884642Y-93721200D01*
X127874882Y-93718590D01*
X127865133Y-93716071D01*
X127855396Y-93713644D01*
X127845670Y-93711308D01*
X127835956Y-93709064D01*
X127826253Y-93706912D01*
X127816561Y-93704851D01*
X127806881Y-93702882D01*
X127797213Y-93701004D01*
X127787555Y-93699218D01*
X127777910Y-93697524D01*
X127763463Y-93695154D01*
X127758653Y-93694410D01*
X127744251Y-93692315D01*
X127729896Y-93690426D01*
X127715588Y-93688743D01*
X127701328Y-93687266D01*
X127687115Y-93685995D01*
X127672949Y-93684930D01*
X127658831Y-93684071D01*
X127644759Y-93683419D01*
X127630735Y-93682972D01*
X127616758Y-93682732D01*
X127607466Y-93682686D01*
X127595078Y-93682749D01*
X127582886Y-93682938D01*
X127570890Y-93683253D01*
X127559091Y-93683694D01*
X127547489Y-93684260D01*
X127536083Y-93684953D01*
X127524873Y-93685772D01*
X127513860Y-93686716D01*
X127503044Y-93687787D01*
X127492424Y-93688983D01*
X127482001Y-93690305D01*
X127471774Y-93691754D01*
X127461744Y-93693328D01*
X127451910Y-93695028D01*
X127442273Y-93696854D01*
X127423589Y-93700884D01*
X127405690Y-93705418D01*
X127388578Y-93710455D01*
X127372252Y-93715997D01*
X127356712Y-93722042D01*
X127341958Y-93728590D01*
X127327991Y-93735643D01*
X127314809Y-93743199D01*
X127308513Y-93747166D01*
X127296476Y-93755482D01*
X127285215Y-93764309D01*
X127274730Y-93773648D01*
X127265023Y-93783497D01*
X127256092Y-93793859D01*
X127247937Y-93804731D01*
X127240559Y-93816115D01*
X127233958Y-93828011D01*
X127228133Y-93840417D01*
X127223085Y-93853336D01*
X127218814Y-93866765D01*
X127215319Y-93880706D01*
X127212601Y-93895158D01*
X127210660Y-93910122D01*
X127209495Y-93925597D01*
X127209106Y-93941584D01*
X127209291Y-93952511D01*
X127209847Y-93963188D01*
X127210772Y-93973615D01*
X127212068Y-93983792D01*
X127213734Y-93993719D01*
X127215770Y-94003396D01*
X127219518Y-94017443D01*
X127224099Y-94030928D01*
X127229512Y-94043850D01*
X127235759Y-94056210D01*
X127242839Y-94068007D01*
X127250752Y-94079242D01*
X127256489Y-94086420D01*
X127265773Y-94096704D01*
X127275855Y-94106401D01*
X127286736Y-94115509D01*
X127298415Y-94124029D01*
X127306645Y-94129382D01*
X127315230Y-94134474D01*
X127324169Y-94139305D01*
X127333464Y-94143874D01*
X127343114Y-94148182D01*
X127353118Y-94152228D01*
X127363477Y-94156013D01*
X127374192Y-94159536D01*
X127385261Y-94162798D01*
X127396685Y-94165799D01*
G37*
G36*
X134655893Y-95842115D02*
G01*
X134660462Y-95832992D01*
X134664888Y-95823819D01*
X134669171Y-95814597D01*
X134673310Y-95805326D01*
X134677307Y-95796004D01*
X134681160Y-95786633D01*
X134684871Y-95777213D01*
X134688438Y-95767743D01*
X134691862Y-95758223D01*
X134695143Y-95748654D01*
X134698281Y-95739035D01*
X134701276Y-95729366D01*
X134704128Y-95719648D01*
X134706836Y-95709880D01*
X134709402Y-95700063D01*
X134711824Y-95690196D01*
X134714102Y-95680307D01*
X134716232Y-95670362D01*
X134718216Y-95660363D01*
X134720052Y-95650308D01*
X134721742Y-95640197D01*
X134723285Y-95630032D01*
X134724680Y-95619811D01*
X134725929Y-95609534D01*
X134727031Y-95599203D01*
X134727986Y-95588816D01*
X134728794Y-95578373D01*
X134729456Y-95567876D01*
X134729970Y-95557323D01*
X134730337Y-95546714D01*
X134730558Y-95536051D01*
X134730631Y-95525332D01*
X134730491Y-95509422D01*
X134730072Y-95493721D01*
X134729373Y-95478228D01*
X134728395Y-95462943D01*
X134727137Y-95447866D01*
X134725599Y-95432996D01*
X134723782Y-95418335D01*
X134721686Y-95403882D01*
X134719310Y-95389637D01*
X134716654Y-95375599D01*
X134713719Y-95361770D01*
X134710504Y-95348149D01*
X134707010Y-95334735D01*
X134703236Y-95321530D01*
X134699182Y-95308533D01*
X134694849Y-95295743D01*
X134690237Y-95283162D01*
X134685345Y-95270789D01*
X134680173Y-95258623D01*
X134674722Y-95246666D01*
X134668992Y-95234916D01*
X134662981Y-95223375D01*
X134656692Y-95212042D01*
X134650122Y-95200916D01*
X134643274Y-95189999D01*
X134636145Y-95179289D01*
X134628737Y-95168788D01*
X134621050Y-95158494D01*
X134613083Y-95148409D01*
X134604836Y-95138531D01*
X134596310Y-95128862D01*
X134587505Y-95119400D01*
X134578460Y-95110189D01*
X134569216Y-95101270D01*
X134559773Y-95092643D01*
X134550132Y-95084309D01*
X134540291Y-95076268D01*
X134530252Y-95068518D01*
X134520013Y-95061062D01*
X134509576Y-95053897D01*
X134498940Y-95047025D01*
X134488105Y-95040446D01*
X134477070Y-95034159D01*
X134465837Y-95028164D01*
X134454406Y-95022462D01*
X134442775Y-95017052D01*
X134430945Y-95011934D01*
X134418916Y-95007109D01*
X134406688Y-95002577D01*
X134394262Y-94998337D01*
X134381636Y-94994389D01*
X134368812Y-94990734D01*
X134355789Y-94987371D01*
X134342566Y-94984300D01*
X134329145Y-94981522D01*
X134315525Y-94979037D01*
X134301706Y-94976844D01*
X134287688Y-94974943D01*
X134273471Y-94973334D01*
X134259055Y-94972019D01*
X134244441Y-94970995D01*
X134229627Y-94970264D01*
X134214614Y-94969825D01*
X134199403Y-94969679D01*
X134184161Y-94969825D01*
X134169120Y-94970264D01*
X134154278Y-94970995D01*
X134139636Y-94972019D01*
X134125194Y-94973334D01*
X134110952Y-94974943D01*
X134096909Y-94976844D01*
X134083067Y-94979037D01*
X134069424Y-94981522D01*
X134055982Y-94984300D01*
X134042739Y-94987371D01*
X134029696Y-94990734D01*
X134016853Y-94994389D01*
X134004210Y-94998337D01*
X133991767Y-95002577D01*
X133979523Y-95007109D01*
X133967480Y-95011934D01*
X133955636Y-95017052D01*
X133943992Y-95022462D01*
X133932548Y-95028164D01*
X133921304Y-95034159D01*
X133910260Y-95040446D01*
X133899416Y-95047025D01*
X133888772Y-95053897D01*
X133878327Y-95061062D01*
X133868083Y-95068518D01*
X133858038Y-95076268D01*
X133848193Y-95084309D01*
X133838548Y-95092643D01*
X133829103Y-95101270D01*
X133819858Y-95110189D01*
X133810812Y-95119400D01*
X133802007Y-95128862D01*
X133793481Y-95138531D01*
X133785234Y-95148409D01*
X133777267Y-95158494D01*
X133769580Y-95168788D01*
X133762172Y-95179289D01*
X133755044Y-95189999D01*
X133748195Y-95200916D01*
X133741625Y-95212042D01*
X133735336Y-95223375D01*
X133729326Y-95234916D01*
X133723595Y-95246666D01*
X133718144Y-95258623D01*
X133712972Y-95270789D01*
X133708080Y-95283162D01*
X133703468Y-95295743D01*
X133699135Y-95308533D01*
X133695081Y-95321530D01*
X133691308Y-95334735D01*
X133687813Y-95348149D01*
X133684599Y-95361770D01*
X133681663Y-95375599D01*
X133679008Y-95389637D01*
X133676632Y-95403882D01*
X133674535Y-95418335D01*
X133672718Y-95432996D01*
X133671180Y-95447866D01*
X133669923Y-95462943D01*
X133668944Y-95478228D01*
X133668245Y-95493721D01*
X133667826Y-95509422D01*
X133667686Y-95525332D01*
X133667760Y-95536051D01*
X133667980Y-95546714D01*
X133668347Y-95557323D01*
X133668862Y-95567876D01*
X133669523Y-95578373D01*
X133670331Y-95588816D01*
X133671286Y-95599203D01*
X133672388Y-95609534D01*
X133673637Y-95619811D01*
X133675033Y-95630032D01*
X133676575Y-95640197D01*
X133678265Y-95650308D01*
X133680102Y-95660363D01*
X133682085Y-95670362D01*
X133684215Y-95680307D01*
X133686493Y-95690196D01*
X133688915Y-95700063D01*
X133691481Y-95709880D01*
X133694189Y-95719648D01*
X133697041Y-95729366D01*
X133700036Y-95739035D01*
X133703174Y-95748654D01*
X133706455Y-95758223D01*
X133709879Y-95767743D01*
X133713446Y-95777213D01*
X133717157Y-95786633D01*
X133721010Y-95796004D01*
X133725007Y-95805326D01*
X133729147Y-95814597D01*
X133733429Y-95823819D01*
X133737855Y-95832992D01*
X133742424Y-95842115D01*
X133949054Y-95842115D01*
X133943080Y-95832933D01*
X133937311Y-95823766D01*
X133931746Y-95814614D01*
X133926385Y-95805478D01*
X133921228Y-95796357D01*
X133916276Y-95787252D01*
X133911527Y-95778161D01*
X133906983Y-95769086D01*
X133902643Y-95760026D01*
X133898507Y-95750982D01*
X133894575Y-95741952D01*
X133889061Y-95728437D01*
X133884005Y-95714956D01*
X133879409Y-95701509D01*
X133877979Y-95697034D01*
X133873920Y-95683593D01*
X133870260Y-95670015D01*
X133866999Y-95656299D01*
X133864138Y-95642446D01*
X133861675Y-95628456D01*
X133859612Y-95614328D01*
X133857949Y-95600062D01*
X133856684Y-95585660D01*
X133855819Y-95571120D01*
X133855464Y-95561350D01*
X133855287Y-95551519D01*
X133855265Y-95546581D01*
X133855622Y-95529139D01*
X133856696Y-95512169D01*
X133858485Y-95495670D01*
X133860989Y-95479643D01*
X133864209Y-95464087D01*
X133868145Y-95449002D01*
X133872796Y-95434388D01*
X133878162Y-95420246D01*
X133884245Y-95406575D01*
X133891042Y-95393376D01*
X133898556Y-95380647D01*
X133906785Y-95368390D01*
X133915729Y-95356605D01*
X133925389Y-95345290D01*
X133935765Y-95334447D01*
X133946856Y-95324076D01*
X133958576Y-95314256D01*
X133970837Y-95305070D01*
X133983641Y-95296518D01*
X133996987Y-95288599D01*
X134010874Y-95281314D01*
X134025303Y-95274662D01*
X134040275Y-95268644D01*
X134055788Y-95263259D01*
X134071843Y-95258508D01*
X134088440Y-95254390D01*
X134105579Y-95250906D01*
X134123260Y-95248055D01*
X134141483Y-95245838D01*
X134160248Y-95244254D01*
X134179554Y-95243304D01*
X134189411Y-95243066D01*
X134199403Y-95242987D01*
X134209365Y-95243066D01*
X134219192Y-95243304D01*
X134238444Y-95244254D01*
X134257157Y-95245838D01*
X134275332Y-95248055D01*
X134292969Y-95250906D01*
X134310068Y-95254390D01*
X134326629Y-95258508D01*
X134342651Y-95263259D01*
X134358136Y-95268644D01*
X134373082Y-95274662D01*
X134387491Y-95281314D01*
X134401361Y-95288599D01*
X134414693Y-95296518D01*
X134427488Y-95305070D01*
X134439744Y-95314256D01*
X134451461Y-95324076D01*
X134462553Y-95334447D01*
X134472928Y-95345290D01*
X134482588Y-95356605D01*
X134491533Y-95368390D01*
X134499761Y-95380647D01*
X134507275Y-95393376D01*
X134514073Y-95406575D01*
X134520155Y-95420246D01*
X134525521Y-95434388D01*
X134530173Y-95449002D01*
X134534108Y-95464087D01*
X134537328Y-95479643D01*
X134539833Y-95495670D01*
X134541621Y-95512169D01*
X134542695Y-95529139D01*
X134543053Y-95546581D01*
X134542965Y-95556442D01*
X134542701Y-95566242D01*
X134541977Y-95580828D01*
X134540858Y-95595277D01*
X134539344Y-95609588D01*
X134537435Y-95623762D01*
X134535131Y-95637798D01*
X134532432Y-95651697D01*
X134529338Y-95665458D01*
X134525849Y-95679083D01*
X134521965Y-95692569D01*
X134520582Y-95697034D01*
X134516096Y-95710470D01*
X134511154Y-95723939D01*
X134505757Y-95737443D01*
X134501907Y-95746465D01*
X134497854Y-95755502D01*
X134493599Y-95764554D01*
X134489141Y-95773622D01*
X134484481Y-95782704D01*
X134479620Y-95791803D01*
X134474555Y-95800916D01*
X134469289Y-95810044D01*
X134463820Y-95819188D01*
X134458149Y-95828347D01*
X134452276Y-95837522D01*
X134449263Y-95842115D01*
X134655893Y-95842115D01*
G37*
G36*
X134527421Y-96091242D02*
G01*
X134527421Y-96324739D01*
X133870896Y-96324739D01*
X133917791Y-96085136D01*
X133730212Y-96085136D01*
X133683318Y-96323517D01*
X133683318Y-96574843D01*
X134527421Y-96574843D01*
X134527421Y-96808339D01*
X134715000Y-96808339D01*
X134715000Y-96091242D01*
X134527421Y-96091242D01*
G37*
G36*
X126105893Y-100892115D02*
G01*
X126110462Y-100882992D01*
X126114888Y-100873819D01*
X126119171Y-100864597D01*
X126123310Y-100855326D01*
X126127307Y-100846004D01*
X126131160Y-100836633D01*
X126134871Y-100827213D01*
X126138438Y-100817743D01*
X126141862Y-100808223D01*
X126145143Y-100798654D01*
X126148281Y-100789035D01*
X126151276Y-100779366D01*
X126154128Y-100769648D01*
X126156836Y-100759880D01*
X126159402Y-100750063D01*
X126161824Y-100740196D01*
X126164102Y-100730307D01*
X126166232Y-100720362D01*
X126168216Y-100710363D01*
X126170052Y-100700308D01*
X126171742Y-100690197D01*
X126173285Y-100680032D01*
X126174680Y-100669811D01*
X126175929Y-100659534D01*
X126177031Y-100649203D01*
X126177986Y-100638816D01*
X126178794Y-100628373D01*
X126179456Y-100617876D01*
X126179970Y-100607323D01*
X126180337Y-100596714D01*
X126180558Y-100586051D01*
X126180631Y-100575332D01*
X126180491Y-100559422D01*
X126180072Y-100543721D01*
X126179373Y-100528228D01*
X126178395Y-100512943D01*
X126177137Y-100497866D01*
X126175599Y-100482996D01*
X126173782Y-100468335D01*
X126171686Y-100453882D01*
X126169310Y-100439637D01*
X126166654Y-100425599D01*
X126163719Y-100411770D01*
X126160504Y-100398149D01*
X126157010Y-100384735D01*
X126153236Y-100371530D01*
X126149182Y-100358533D01*
X126144849Y-100345743D01*
X126140237Y-100333162D01*
X126135345Y-100320789D01*
X126130173Y-100308623D01*
X126124722Y-100296666D01*
X126118992Y-100284916D01*
X126112981Y-100273375D01*
X126106692Y-100262042D01*
X126100122Y-100250916D01*
X126093274Y-100239999D01*
X126086145Y-100229289D01*
X126078737Y-100218788D01*
X126071050Y-100208494D01*
X126063083Y-100198409D01*
X126054836Y-100188531D01*
X126046310Y-100178862D01*
X126037505Y-100169400D01*
X126028460Y-100160189D01*
X126019216Y-100151270D01*
X126009773Y-100142643D01*
X126000132Y-100134309D01*
X125990291Y-100126268D01*
X125980252Y-100118518D01*
X125970013Y-100111062D01*
X125959576Y-100103897D01*
X125948940Y-100097025D01*
X125938105Y-100090446D01*
X125927070Y-100084159D01*
X125915837Y-100078164D01*
X125904406Y-100072462D01*
X125892775Y-100067052D01*
X125880945Y-100061934D01*
X125868916Y-100057109D01*
X125856688Y-100052577D01*
X125844262Y-100048337D01*
X125831636Y-100044389D01*
X125818812Y-100040734D01*
X125805789Y-100037371D01*
X125792566Y-100034300D01*
X125779145Y-100031522D01*
X125765525Y-100029037D01*
X125751706Y-100026844D01*
X125737688Y-100024943D01*
X125723471Y-100023334D01*
X125709055Y-100022019D01*
X125694441Y-100020995D01*
X125679627Y-100020264D01*
X125664614Y-100019825D01*
X125649403Y-100019679D01*
X125634161Y-100019825D01*
X125619120Y-100020264D01*
X125604278Y-100020995D01*
X125589636Y-100022019D01*
X125575194Y-100023334D01*
X125560952Y-100024943D01*
X125546909Y-100026844D01*
X125533067Y-100029037D01*
X125519424Y-100031522D01*
X125505982Y-100034300D01*
X125492739Y-100037371D01*
X125479696Y-100040734D01*
X125466853Y-100044389D01*
X125454210Y-100048337D01*
X125441767Y-100052577D01*
X125429523Y-100057109D01*
X125417480Y-100061934D01*
X125405636Y-100067052D01*
X125393992Y-100072462D01*
X125382548Y-100078164D01*
X125371304Y-100084159D01*
X125360260Y-100090446D01*
X125349416Y-100097025D01*
X125338772Y-100103897D01*
X125328327Y-100111062D01*
X125318083Y-100118518D01*
X125308038Y-100126268D01*
X125298193Y-100134309D01*
X125288548Y-100142643D01*
X125279103Y-100151270D01*
X125269858Y-100160189D01*
X125260812Y-100169400D01*
X125252007Y-100178862D01*
X125243481Y-100188531D01*
X125235234Y-100198409D01*
X125227267Y-100208494D01*
X125219580Y-100218788D01*
X125212172Y-100229289D01*
X125205044Y-100239999D01*
X125198195Y-100250916D01*
X125191625Y-100262042D01*
X125185336Y-100273375D01*
X125179326Y-100284916D01*
X125173595Y-100296666D01*
X125168144Y-100308623D01*
X125162972Y-100320789D01*
X125158080Y-100333162D01*
X125153468Y-100345743D01*
X125149135Y-100358533D01*
X125145081Y-100371530D01*
X125141308Y-100384735D01*
X125137813Y-100398149D01*
X125134599Y-100411770D01*
X125131663Y-100425599D01*
X125129008Y-100439637D01*
X125126632Y-100453882D01*
X125124535Y-100468335D01*
X125122718Y-100482996D01*
X125121180Y-100497866D01*
X125119923Y-100512943D01*
X125118944Y-100528228D01*
X125118245Y-100543721D01*
X125117826Y-100559422D01*
X125117686Y-100575332D01*
X125117760Y-100586051D01*
X125117980Y-100596714D01*
X125118347Y-100607323D01*
X125118862Y-100617876D01*
X125119523Y-100628373D01*
X125120331Y-100638816D01*
X125121286Y-100649203D01*
X125122388Y-100659534D01*
X125123637Y-100669811D01*
X125125033Y-100680032D01*
X125126575Y-100690197D01*
X125128265Y-100700308D01*
X125130102Y-100710363D01*
X125132085Y-100720362D01*
X125134215Y-100730307D01*
X125136493Y-100740196D01*
X125138915Y-100750063D01*
X125141481Y-100759880D01*
X125144189Y-100769648D01*
X125147041Y-100779366D01*
X125150036Y-100789035D01*
X125153174Y-100798654D01*
X125156455Y-100808223D01*
X125159879Y-100817743D01*
X125163446Y-100827213D01*
X125167157Y-100836633D01*
X125171010Y-100846004D01*
X125175007Y-100855326D01*
X125179147Y-100864597D01*
X125183429Y-100873819D01*
X125187855Y-100882992D01*
X125192424Y-100892115D01*
X125399054Y-100892115D01*
X125393080Y-100882933D01*
X125387311Y-100873766D01*
X125381746Y-100864614D01*
X125376385Y-100855478D01*
X125371228Y-100846357D01*
X125366276Y-100837252D01*
X125361527Y-100828161D01*
X125356983Y-100819086D01*
X125352643Y-100810026D01*
X125348507Y-100800982D01*
X125344575Y-100791952D01*
X125339061Y-100778437D01*
X125334005Y-100764956D01*
X125329409Y-100751509D01*
X125327979Y-100747034D01*
X125323920Y-100733593D01*
X125320260Y-100720015D01*
X125316999Y-100706299D01*
X125314138Y-100692446D01*
X125311675Y-100678456D01*
X125309612Y-100664328D01*
X125307949Y-100650062D01*
X125306684Y-100635660D01*
X125305819Y-100621120D01*
X125305464Y-100611350D01*
X125305287Y-100601519D01*
X125305265Y-100596581D01*
X125305622Y-100579139D01*
X125306696Y-100562169D01*
X125308485Y-100545670D01*
X125310989Y-100529643D01*
X125314209Y-100514087D01*
X125318145Y-100499002D01*
X125322796Y-100484388D01*
X125328162Y-100470246D01*
X125334245Y-100456575D01*
X125341042Y-100443376D01*
X125348556Y-100430647D01*
X125356785Y-100418390D01*
X125365729Y-100406605D01*
X125375389Y-100395290D01*
X125385765Y-100384447D01*
X125396856Y-100374076D01*
X125408576Y-100364256D01*
X125420837Y-100355070D01*
X125433641Y-100346518D01*
X125446987Y-100338599D01*
X125460874Y-100331314D01*
X125475303Y-100324662D01*
X125490275Y-100318644D01*
X125505788Y-100313259D01*
X125521843Y-100308508D01*
X125538440Y-100304390D01*
X125555579Y-100300906D01*
X125573260Y-100298055D01*
X125591483Y-100295838D01*
X125610248Y-100294254D01*
X125629554Y-100293304D01*
X125639411Y-100293066D01*
X125649403Y-100292987D01*
X125659365Y-100293066D01*
X125669192Y-100293304D01*
X125688444Y-100294254D01*
X125707157Y-100295838D01*
X125725332Y-100298055D01*
X125742969Y-100300906D01*
X125760068Y-100304390D01*
X125776629Y-100308508D01*
X125792651Y-100313259D01*
X125808136Y-100318644D01*
X125823082Y-100324662D01*
X125837491Y-100331314D01*
X125851361Y-100338599D01*
X125864693Y-100346518D01*
X125877488Y-100355070D01*
X125889744Y-100364256D01*
X125901461Y-100374076D01*
X125912553Y-100384447D01*
X125922928Y-100395290D01*
X125932588Y-100406605D01*
X125941533Y-100418390D01*
X125949761Y-100430647D01*
X125957275Y-100443376D01*
X125964073Y-100456575D01*
X125970155Y-100470246D01*
X125975521Y-100484388D01*
X125980173Y-100499002D01*
X125984108Y-100514087D01*
X125987328Y-100529643D01*
X125989833Y-100545670D01*
X125991621Y-100562169D01*
X125992695Y-100579139D01*
X125993053Y-100596581D01*
X125992965Y-100606442D01*
X125992701Y-100616242D01*
X125991977Y-100630828D01*
X125990858Y-100645277D01*
X125989344Y-100659588D01*
X125987435Y-100673762D01*
X125985131Y-100687798D01*
X125982432Y-100701697D01*
X125979338Y-100715458D01*
X125975849Y-100729083D01*
X125971965Y-100742569D01*
X125970582Y-100747034D01*
X125966096Y-100760470D01*
X125961154Y-100773939D01*
X125955757Y-100787443D01*
X125951907Y-100796465D01*
X125947854Y-100805502D01*
X125943599Y-100814554D01*
X125939141Y-100823622D01*
X125934481Y-100832704D01*
X125929620Y-100841803D01*
X125924555Y-100850916D01*
X125919289Y-100860044D01*
X125913820Y-100869188D01*
X125908149Y-100878347D01*
X125902276Y-100887522D01*
X125899263Y-100892115D01*
X126105893Y-100892115D01*
G37*
G36*
X125961789Y-101381577D02*
G01*
X125961789Y-101832938D01*
X126165000Y-101832938D01*
X126165000Y-101087753D01*
X125961789Y-101087753D01*
X125632062Y-101461933D01*
X125623471Y-101471135D01*
X125614920Y-101479874D01*
X125606407Y-101488148D01*
X125597932Y-101495959D01*
X125589497Y-101503307D01*
X125581100Y-101510190D01*
X125572741Y-101516610D01*
X125564422Y-101522566D01*
X125556140Y-101528059D01*
X125545159Y-101534661D01*
X125542424Y-101536183D01*
X125531441Y-101541850D01*
X125520351Y-101546762D01*
X125509154Y-101550918D01*
X125497850Y-101554318D01*
X125486439Y-101556963D01*
X125474922Y-101558852D01*
X125463297Y-101559985D01*
X125451566Y-101560363D01*
X125438124Y-101559936D01*
X125425185Y-101558654D01*
X125412748Y-101556518D01*
X125400813Y-101553528D01*
X125389381Y-101549683D01*
X125378451Y-101544984D01*
X125368023Y-101539431D01*
X125358097Y-101533023D01*
X125348674Y-101525761D01*
X125339753Y-101517644D01*
X125334085Y-101511759D01*
X125326141Y-101502410D01*
X125318979Y-101492499D01*
X125312597Y-101482025D01*
X125306997Y-101470989D01*
X125302179Y-101459391D01*
X125298142Y-101447230D01*
X125294886Y-101434507D01*
X125292411Y-101421221D01*
X125290718Y-101407373D01*
X125289807Y-101392962D01*
X125289633Y-101383043D01*
X125289876Y-101371353D01*
X125290603Y-101359458D01*
X125291816Y-101347357D01*
X125293514Y-101335049D01*
X125295697Y-101322535D01*
X125298366Y-101309816D01*
X125301519Y-101296890D01*
X125305158Y-101283758D01*
X125309282Y-101270420D01*
X125313890Y-101256876D01*
X125317233Y-101247732D01*
X125320758Y-101238503D01*
X125324495Y-101229193D01*
X125328444Y-101219803D01*
X125332605Y-101210333D01*
X125336977Y-101200782D01*
X125341561Y-101191152D01*
X125346358Y-101181441D01*
X125351366Y-101171651D01*
X125356585Y-101161780D01*
X125362017Y-101151829D01*
X125367660Y-101141798D01*
X125373515Y-101131686D01*
X125379582Y-101121495D01*
X125385861Y-101111223D01*
X125392352Y-101100872D01*
X125399054Y-101090440D01*
X125180212Y-101090440D01*
X125176453Y-101101605D01*
X125172809Y-101112754D01*
X125169279Y-101123885D01*
X125165863Y-101134999D01*
X125162562Y-101146096D01*
X125159375Y-101157175D01*
X125156303Y-101168238D01*
X125153346Y-101179283D01*
X125150502Y-101190311D01*
X125147774Y-101201322D01*
X125145160Y-101212316D01*
X125142660Y-101223293D01*
X125140275Y-101234252D01*
X125138004Y-101245194D01*
X125135848Y-101256119D01*
X125133806Y-101267027D01*
X125131854Y-101277913D01*
X125130028Y-101288773D01*
X125128328Y-101299605D01*
X125126754Y-101310411D01*
X125125305Y-101321190D01*
X125123983Y-101331943D01*
X125122787Y-101342668D01*
X125121716Y-101353367D01*
X125120772Y-101364040D01*
X125119953Y-101374685D01*
X125119260Y-101385304D01*
X125118694Y-101395896D01*
X125118253Y-101406461D01*
X125117938Y-101417000D01*
X125117749Y-101427512D01*
X125117686Y-101437997D01*
X125117765Y-101449427D01*
X125118000Y-101460696D01*
X125118392Y-101471804D01*
X125118942Y-101482751D01*
X125119648Y-101493538D01*
X125120511Y-101504163D01*
X125121531Y-101514628D01*
X125122708Y-101524933D01*
X125124042Y-101535076D01*
X125125533Y-101545059D01*
X125127181Y-101554881D01*
X125128986Y-101564542D01*
X125133067Y-101583382D01*
X125137775Y-101601579D01*
X125143111Y-101619133D01*
X125149075Y-101636044D01*
X125155667Y-101652312D01*
X125162886Y-101667937D01*
X125170734Y-101682919D01*
X125179209Y-101697257D01*
X125188311Y-101710953D01*
X125198042Y-101724006D01*
X125208335Y-101736369D01*
X125219123Y-101747934D01*
X125230408Y-101758702D01*
X125242189Y-101768672D01*
X125254466Y-101777844D01*
X125267239Y-101786219D01*
X125280508Y-101793796D01*
X125294274Y-101800576D01*
X125308535Y-101806558D01*
X125323293Y-101811742D01*
X125338547Y-101816129D01*
X125354296Y-101819718D01*
X125370542Y-101822510D01*
X125387284Y-101824504D01*
X125404523Y-101825700D01*
X125422257Y-101826099D01*
X125432594Y-101825930D01*
X125442846Y-101825424D01*
X125453012Y-101824579D01*
X125463091Y-101823397D01*
X125473085Y-101821878D01*
X125482993Y-101820020D01*
X125492816Y-101817825D01*
X125502552Y-101815292D01*
X125512202Y-101812421D01*
X125521767Y-101809212D01*
X125531246Y-101805666D01*
X125540638Y-101801782D01*
X125549945Y-101797560D01*
X125559167Y-101793001D01*
X125568302Y-101788103D01*
X125577351Y-101782868D01*
X125586518Y-101777091D01*
X125596066Y-101770568D01*
X125605996Y-101763299D01*
X125616308Y-101755284D01*
X125627001Y-101746523D01*
X125638076Y-101737016D01*
X125649533Y-101726762D01*
X125661371Y-101715763D01*
X125673591Y-101704017D01*
X125686192Y-101691525D01*
X125699175Y-101678288D01*
X125712540Y-101664304D01*
X125719365Y-101657032D01*
X125726286Y-101649574D01*
X125733302Y-101641929D01*
X125740414Y-101634098D01*
X125747621Y-101626080D01*
X125754923Y-101617876D01*
X125762321Y-101609485D01*
X125769815Y-101600907D01*
X125961789Y-101381577D01*
G37*
D11*
%TO.C,U1*%
X132430000Y-101200000D02*
X132430000Y-100060000D01*
X127940000Y-100060000D02*
X128170000Y-100060000D01*
X132660000Y-100060000D02*
X132430000Y-100060000D01*
X132660000Y-100060000D02*
X132660000Y-97340000D01*
X127940000Y-97340000D02*
X127940000Y-100060000D01*
X129250000Y-97340000D02*
X127940000Y-97340000D01*
X132660000Y-97340000D02*
X131350000Y-97340000D01*
%TO.C,C1*%
X135035000Y-99038748D02*
X135035000Y-99561252D01*
X133565000Y-99038748D02*
X133565000Y-99561252D01*
%TO.C,C2*%
X126485000Y-97588748D02*
X126485000Y-98111252D01*
X125015000Y-97588748D02*
X125015000Y-98111252D01*
%TD*%
M02*
