%TF.GenerationSoftware,KiCad,Pcbnew,7.0.9-7.0.9~ubuntu22.04.1*%
%TF.CreationDate,2023-11-27T09:49:11+01:00*%
%TF.ProjectId,pcb,7063622e-6b69-4636-9164-5f7063625858,rev?*%
%TF.SameCoordinates,Original*%
%TF.FileFunction,Copper,L1,Top*%
%TF.FilePolarity,Positive*%
%FSLAX46Y46*%
G04 Gerber Fmt 4.6, Leading zero omitted, Abs format (unit mm)*
G04 Created by KiCad (PCBNEW 7.0.9-7.0.9~ubuntu22.04.1) date 2023-11-27 09:49:11*
%MOMM*%
%LPD*%
G01*
G04 APERTURE LIST*
G04 Aperture macros list*
%AMRoundRect*
0 Rectangle with rounded corners*
0 $1 Rounding radius*
0 $2 $3 $4 $5 $6 $7 $8 $9 X,Y pos of 4 corners*
0 Add a 4 corners polygon primitive as box body*
4,1,4,$2,$3,$4,$5,$6,$7,$8,$9,$2,$3,0*
0 Add four circle primitives for the rounded corners*
1,1,$1+$1,$2,$3*
1,1,$1+$1,$4,$5*
1,1,$1+$1,$6,$7*
1,1,$1+$1,$8,$9*
0 Add four rect primitives between the rounded corners*
20,1,$1+$1,$2,$3,$4,$5,0*
20,1,$1+$1,$4,$5,$6,$7,0*
20,1,$1+$1,$6,$7,$8,$9,0*
20,1,$1+$1,$8,$9,$2,$3,0*%
G04 Aperture macros list end*
%TA.AperFunction,SMDPad,CuDef*%
%ADD10R,0.400000X1.000000*%
%TD*%
%TA.AperFunction,SMDPad,CuDef*%
%ADD11RoundRect,0.250000X-0.450000X0.350000X-0.450000X-0.350000X0.450000X-0.350000X0.450000X0.350000X0*%
%TD*%
%TA.AperFunction,ComponentPad*%
%ADD12C,1.600000*%
%TD*%
%TA.AperFunction,ComponentPad*%
%ADD13O,3.200000X1.300000*%
%TD*%
%TA.AperFunction,ViaPad*%
%ADD14C,0.800000*%
%TD*%
%TA.AperFunction,Conductor*%
%ADD15C,0.500000*%
%TD*%
%TA.AperFunction,Conductor*%
%ADD16C,0.200000*%
%TD*%
%TA.AperFunction,Conductor*%
%ADD17C,0.300000*%
%TD*%
G04 APERTURE END LIST*
D10*
%TO.P,ch32v003f4p6,1,PD4/A7/UCK/T2CH1ETR/OPO/T1CH4ETR_*%
%TO.N,/USB_D-*%
X131199999Y-96550000D03*
%TO.P,ch32v003f4p6,2,PD5/A5/UTX/T2CH4_/URX_*%
%TO.N,/DPU*%
X130549999Y-96550000D03*
%TO.P,ch32v003f4p6,3,PD6/A6/URX/T2CH3_/UTX_*%
%TO.N,unconnected-(ch32v003f4p6-PD6{slash}A6{slash}URX{slash}T2CH3_{slash}UTX_-Pad3)*%
X129899999Y-96550000D03*
%TO.P,ch32v003f4p6,4,PD7/NRST/T2CH4/OPP1/UCK_*%
%TO.N,unconnected-(ch32v003f4p6-PD7{slash}NRST{slash}T2CH4{slash}OPP1{slash}UCK_-Pad4)*%
X129249999Y-96550000D03*
%TO.P,ch32v003f4p6,5,PA1/OSCI/A1/T1CH2/OPN0*%
%TO.N,unconnected-(ch32v003f4p6-PA1{slash}OSCI{slash}A1{slash}T1CH2{slash}OPN0-Pad5)*%
X128599999Y-96550000D03*
%TO.P,ch32v003f4p6,6,PA2/OSCO/A0/T1CH2N/OPP0/AETR2_*%
%TO.N,unconnected-(ch32v003f4p6-PA2{slash}OSCO{slash}A0{slash}T1CH2N{slash}OPP0{slash}AETR2_-Pad6)*%
X127949999Y-96550000D03*
%TO.P,ch32v003f4p6,7,VSS*%
%TO.N,GND*%
X127299999Y-96550000D03*
%TO.P,ch32v003f4p6,8,PD0/T1CH1N/OPN1/SDA_/UTX_*%
%TO.N,unconnected-(ch32v003f4p6-PD0{slash}T1CH1N{slash}OPN1{slash}SDA_{slash}UTX_-Pad8)*%
X126649999Y-96550000D03*
%TO.P,ch32v003f4p6,9,VDD*%
%TO.N,+3.3V*%
X125999999Y-96550000D03*
%TO.P,ch32v003f4p6,10,PC0/T2CH3/UTX_/NSS_/T1CH3_*%
%TO.N,unconnected-(ch32v003f4p6-PC0{slash}T2CH3{slash}UTX_{slash}NSS_{slash}T1CH3_-Pad10)*%
X125349999Y-96550000D03*
%TO.P,ch32v003f4p6,11,PC1/SDA/NSS/T2CH4_/T2CH1ETR_/T1BKIN_/URX_*%
%TO.N,unconnected-(ch32v003f4p6-PC1{slash}SDA{slash}NSS{slash}T2CH4_{slash}T2CH1ETR_{slash}T1BKIN_{slash}URX_-Pad11)*%
X125349999Y-102350000D03*
%TO.P,ch32v003f4p6,12,PC2/SCL/URTS/T1BKIN/AETR_/T2CH2_/T1ETR_*%
%TO.N,unconnected-(ch32v003f4p6-PC2{slash}SCL{slash}URTS{slash}T1BKIN{slash}AETR_{slash}T2CH2_{slash}T1ETR_-Pad12)*%
X125999999Y-102350000D03*
%TO.P,ch32v003f4p6,13,PC3/T1CH3/T1CH1N_/UCTS_*%
%TO.N,unconnected-(ch32v003f4p6-PC3{slash}T1CH3{slash}T1CH1N_{slash}UCTS_-Pad13)*%
X126649999Y-102350000D03*
%TO.P,ch32v003f4p6,14,PC4/A2/T1CH4/MCO/T1CH1CH2N_*%
%TO.N,unconnected-(ch32v003f4p6-PC4{slash}A2{slash}T1CH4{slash}MCO{slash}T1CH1CH2N_-Pad14)*%
X127299999Y-102350000D03*
%TO.P,ch32v003f4p6,15,PC5/SCK/T1ETR/T2CH1ETR_/SCL_/UCK_/T1CH3_*%
%TO.N,unconnected-(ch32v003f4p6-PC5{slash}SCK{slash}T1ETR{slash}T2CH1ETR_{slash}SCL_{slash}UCK_{slash}T1CH3_-Pad15)*%
X127949999Y-102350000D03*
%TO.P,ch32v003f4p6,16,PC6/MOSI/T1CH1CH3N_/UCTS_/SDA_*%
%TO.N,unconnected-(ch32v003f4p6-PC6{slash}MOSI{slash}T1CH1CH3N_{slash}UCTS_{slash}SDA_-Pad16)*%
X128599999Y-102350000D03*
%TO.P,ch32v003f4p6,17,PC7/MISO/T1CH2_/T2CH2_/URTS_*%
%TO.N,unconnected-(ch32v003f4p6-PC7{slash}MISO{slash}T1CH2_{slash}T2CH2_{slash}URTS_-Pad17)*%
X129249999Y-102350000D03*
%TO.P,ch32v003f4p6,18,PD1/SWIO/AETR2/T1CH3N/SCL_/URX_*%
%TO.N,unconnected-(ch32v003f4p6-PD1{slash}SWIO{slash}AETR2{slash}T1CH3N{slash}SCL_{slash}URX_-Pad18)*%
X129899999Y-102350000D03*
%TO.P,ch32v003f4p6,19,PD2/A3/T1CH1/T2CH3_/T1CH2N_*%
%TO.N,unconnected-(ch32v003f4p6-PD2{slash}A3{slash}T1CH1{slash}T2CH3_{slash}T1CH2N_-Pad19)*%
X130549999Y-102350000D03*
%TO.P,ch32v003f4p6,20,PD3/A4/T2CH2/AETR/UCTS/T1CH4_*%
%TO.N,/USB_D+*%
X131199999Y-102350000D03*
%TD*%
D11*
%TO.P,R1,1*%
%TO.N,/DPU*%
X133800000Y-95850000D03*
%TO.P,R1,2*%
%TO.N,/USB_D-*%
X133800000Y-97850000D03*
%TD*%
D12*
%TO.P,J1,1,VBUS*%
%TO.N,+5V*%
X137400000Y-95950000D03*
%TO.P,J1,2,D-*%
%TO.N,/USB_D-*%
X137400000Y-98450000D03*
%TO.P,J1,3,D+*%
%TO.N,/USB_D+*%
X137400000Y-100450000D03*
%TO.P,J1,4,GND*%
%TO.N,GND*%
X137400000Y-102950000D03*
D13*
%TO.P,J1,5,Shield*%
X140000000Y-93600000D03*
X140000000Y-105300000D03*
%TD*%
D14*
%TO.N,GND*%
X124100000Y-100500000D03*
%TO.N,+3.3V*%
X125200000Y-95100000D03*
%TD*%
D15*
%TO.N,GND*%
X126600000Y-93200000D02*
X127000000Y-93600000D01*
X127000000Y-93600000D02*
X140000000Y-93600000D01*
X124800000Y-93200000D02*
X124100000Y-93900000D01*
X124100000Y-93900000D02*
X124100000Y-100500000D01*
X127300000Y-93900000D02*
X126600000Y-93200000D01*
X126600000Y-93200000D02*
X124800000Y-93200000D01*
X127299999Y-96550000D02*
X127300000Y-93900000D01*
%TO.N,+3.3V*%
X125999999Y-96550000D02*
X125999999Y-95550000D01*
X125999999Y-95550000D02*
X125549999Y-95100000D01*
X125549999Y-95100000D02*
X125200000Y-95100000D01*
D16*
%TO.N,/USB_D-*%
X131950000Y-96550000D02*
X131199999Y-96550000D01*
X134625000Y-99225000D02*
X131950000Y-96550000D01*
X136625000Y-99225000D02*
X134625000Y-99225000D01*
X137400000Y-98450000D02*
X136625000Y-99225000D01*
D17*
%TO.N,/DPU*%
X133250000Y-94700000D02*
X131599999Y-94700000D01*
X133800000Y-95250000D02*
X133250000Y-94700000D01*
X133800000Y-95850000D02*
X133800000Y-95250000D01*
X131599999Y-94700000D02*
X130549999Y-95750000D01*
X130549999Y-95750000D02*
X130549999Y-96550000D01*
D16*
%TO.N,/USB_D+*%
X134625000Y-99675000D02*
X131950000Y-102350000D01*
X137400000Y-100450000D02*
X136625000Y-99675000D01*
X136625000Y-99675000D02*
X134625000Y-99675000D01*
X131950000Y-102350000D02*
X131199999Y-102350000D01*
%TD*%
M02*
